<mxfile host="app.diagrams.net" modified="2020-11-18T15:17:40.021Z" agent="5.0 (Windows)" etag="GdxhKWKeCgZk_O70qkE8" version="13.9.9" type="github">
  <diagram name="Page-1" id="bfe91b75-5d2c-26a0-9c1d-138518896778">
    <mxGraphModel dx="1174" dy="742" grid="1" gridSize="10" guides="1" tooltips="1" connect="1" arrows="1" fold="1" page="1" pageScale="1" pageWidth="1100" pageHeight="850" background="#ffffff" math="0" shadow="0">
      <root>
        <mxCell id="0" />
        <mxCell id="1" parent="0" />
        <mxCell id="GZCv9EuEwbtDtDDyxfHs-36" value="" style="rounded=0;whiteSpace=wrap;html=1;shadow=1;labelBackgroundColor=none;fillColor=#ffffff;gradientColor=none;" vertex="1" parent="1">
          <mxGeometry x="350" y="20" width="500" height="450" as="geometry" />
        </mxCell>
        <mxCell id="GZCv9EuEwbtDtDDyxfHs-6" value="100Mbps" style="edgeStyle=none;rounded=0;orthogonalLoop=1;jettySize=auto;html=1;endArrow=none;endFill=0;" edge="1" parent="1" source="GZCv9EuEwbtDtDDyxfHs-2" target="GZCv9EuEwbtDtDDyxfHs-4">
          <mxGeometry y="-10" relative="1" as="geometry">
            <mxPoint as="offset" />
          </mxGeometry>
        </mxCell>
        <mxCell id="GZCv9EuEwbtDtDDyxfHs-9" value="" style="edgeStyle=none;rounded=0;orthogonalLoop=1;jettySize=auto;html=1;endArrow=none;endFill=0;strokeColor=#000000;" edge="1" parent="1" source="GZCv9EuEwbtDtDDyxfHs-2" target="GZCv9EuEwbtDtDDyxfHs-4">
          <mxGeometry relative="1" as="geometry" />
        </mxCell>
        <mxCell id="GZCv9EuEwbtDtDDyxfHs-11" value="" style="edgeStyle=none;rounded=0;orthogonalLoop=1;jettySize=auto;html=1;endArrow=none;endFill=0;strokeColor=#000000;" edge="1" parent="1" source="GZCv9EuEwbtDtDDyxfHs-2" target="GZCv9EuEwbtDtDDyxfHs-4">
          <mxGeometry relative="1" as="geometry" />
        </mxCell>
        <mxCell id="GZCv9EuEwbtDtDDyxfHs-12" value="" style="edgeStyle=none;rounded=0;orthogonalLoop=1;jettySize=auto;html=1;endArrow=none;endFill=0;strokeColor=#000000;" edge="1" parent="1" source="GZCv9EuEwbtDtDDyxfHs-2" target="GZCv9EuEwbtDtDDyxfHs-4">
          <mxGeometry relative="1" as="geometry" />
        </mxCell>
        <mxCell id="GZCv9EuEwbtDtDDyxfHs-13" value="" style="edgeStyle=none;rounded=0;orthogonalLoop=1;jettySize=auto;html=1;endArrow=none;endFill=0;strokeColor=#000000;" edge="1" parent="1" source="GZCv9EuEwbtDtDDyxfHs-2" target="GZCv9EuEwbtDtDDyxfHs-4">
          <mxGeometry relative="1" as="geometry" />
        </mxCell>
        <mxCell id="GZCv9EuEwbtDtDDyxfHs-14" value="" style="edgeStyle=none;rounded=0;orthogonalLoop=1;jettySize=auto;html=1;endArrow=none;endFill=0;strokeColor=#000000;" edge="1" parent="1" source="GZCv9EuEwbtDtDDyxfHs-2" target="GZCv9EuEwbtDtDDyxfHs-4">
          <mxGeometry relative="1" as="geometry" />
        </mxCell>
        <mxCell id="GZCv9EuEwbtDtDDyxfHs-2" value="internet" style="outlineConnect=0;fontColor=#232F3E;strokeColor=#232F3E;dashed=0;verticalLabelPosition=top;verticalAlign=bottom;align=center;html=1;fontSize=12;fontStyle=0;aspect=fixed;shape=mxgraph.aws4.resourceIcon;resIcon=mxgraph.aws4.internet;gradientDirection=south;labelPosition=center;" vertex="1" parent="1">
          <mxGeometry x="80" y="50" width="40" height="40" as="geometry" />
        </mxCell>
        <mxCell id="GZCv9EuEwbtDtDDyxfHs-8" style="edgeStyle=none;rounded=0;orthogonalLoop=1;jettySize=auto;html=1;entryX=0.5;entryY=0;entryDx=0;entryDy=0;entryPerimeter=0;endArrow=none;endFill=0;strokeColor=#000000;" edge="1" parent="1" source="GZCv9EuEwbtDtDDyxfHs-4" target="GZCv9EuEwbtDtDDyxfHs-7">
          <mxGeometry relative="1" as="geometry" />
        </mxCell>
        <mxCell id="GZCv9EuEwbtDtDDyxfHs-4" value="&lt;div&gt;NTT VDSL&amp;lt;N&amp;gt;B-100E&lt;/div&gt;" style="fontColor=#0066CC;verticalAlign=bottom;verticalLabelPosition=top;labelPosition=center;align=center;html=1;outlineConnect=0;fillColor=#CCCCCC;strokeColor=#6881B3;gradientDirection=north;strokeWidth=2;shape=mxgraph.networks.modem;shadow=0;overflow=visible;direction=east;labelBackgroundColor=none;labelBorderColor=none;" vertex="1" parent="1">
          <mxGeometry x="50" y="170" width="100" height="30" as="geometry" />
        </mxCell>
        <mxCell id="GZCv9EuEwbtDtDDyxfHs-20" style="edgeStyle=orthogonalEdgeStyle;rounded=0;orthogonalLoop=1;jettySize=auto;html=1;entryX=0.5;entryY=0.07;entryDx=0;entryDy=0;entryPerimeter=0;endArrow=none;endFill=0;strokeColor=#000000;" edge="1" parent="1" source="GZCv9EuEwbtDtDDyxfHs-7" target="GZCv9EuEwbtDtDDyxfHs-19">
          <mxGeometry relative="1" as="geometry" />
        </mxCell>
        <mxCell id="GZCv9EuEwbtDtDDyxfHs-45" value="Cat 7" style="edgeLabel;html=1;align=center;verticalAlign=middle;resizable=0;points=[];" vertex="1" connectable="0" parent="GZCv9EuEwbtDtDDyxfHs-20">
          <mxGeometry x="-0.2835" y="-2" relative="1" as="geometry">
            <mxPoint y="6" as="offset" />
          </mxGeometry>
        </mxCell>
        <mxCell id="GZCv9EuEwbtDtDDyxfHs-22" style="edgeStyle=orthogonalEdgeStyle;rounded=0;orthogonalLoop=1;jettySize=auto;html=1;entryX=0.5;entryY=0;entryDx=0;entryDy=0;entryPerimeter=0;endArrow=none;endFill=0;strokeColor=#000000;" edge="1" parent="1" source="GZCv9EuEwbtDtDDyxfHs-7" target="GZCv9EuEwbtDtDDyxfHs-21">
          <mxGeometry relative="1" as="geometry" />
        </mxCell>
        <mxCell id="GZCv9EuEwbtDtDDyxfHs-46" value="Cat 6A" style="edgeLabel;html=1;align=center;verticalAlign=middle;resizable=0;points=[];" vertex="1" connectable="0" parent="GZCv9EuEwbtDtDDyxfHs-22">
          <mxGeometry x="0.3073" y="-1" relative="1" as="geometry">
            <mxPoint as="offset" />
          </mxGeometry>
        </mxCell>
        <mxCell id="GZCv9EuEwbtDtDDyxfHs-7" value="ASUS RT-AX3000" style="fontColor=#0066CC;verticalAlign=bottom;verticalLabelPosition=top;labelPosition=center;align=center;html=1;outlineConnect=0;fillColor=#CCCCCC;strokeColor=#6881B3;gradientColor=none;gradientDirection=north;strokeWidth=2;shape=mxgraph.networks.router;" vertex="1" parent="1">
          <mxGeometry x="50" y="290" width="100" height="30" as="geometry" />
        </mxCell>
        <mxCell id="GZCv9EuEwbtDtDDyxfHs-17" value="&lt;div&gt;192.168.1.1&lt;/div&gt;" style="text;html=1;resizable=0;autosize=1;align=center;verticalAlign=middle;points=[];fillColor=none;strokeColor=none;rounded=0;shadow=0;labelBackgroundColor=none;" vertex="1" parent="1">
          <mxGeometry x="60" y="320" width="80" height="20" as="geometry" />
        </mxCell>
        <mxCell id="GZCv9EuEwbtDtDDyxfHs-37" style="edgeStyle=orthogonalEdgeStyle;rounded=0;orthogonalLoop=1;jettySize=auto;html=1;entryX=0;entryY=0.5;entryDx=0;entryDy=0;endArrow=none;endFill=0;strokeColor=#000000;" edge="1" parent="1" source="GZCv9EuEwbtDtDDyxfHs-18" target="GZCv9EuEwbtDtDDyxfHs-36">
          <mxGeometry relative="1" as="geometry" />
        </mxCell>
        <mxCell id="GZCv9EuEwbtDtDDyxfHs-18" value="" style="pointerEvents=1;shadow=0;dashed=0;html=1;strokeColor=none;fillColor=#434445;aspect=fixed;labelPosition=center;verticalLabelPosition=bottom;verticalAlign=top;align=center;outlineConnect=0;shape=mxgraph.vvd.wi_fi;labelBackgroundColor=none;" vertex="1" parent="1">
          <mxGeometry x="150" y="260" width="20" height="20" as="geometry" />
        </mxCell>
        <mxCell id="GZCv9EuEwbtDtDDyxfHs-19" value="PC" style="fontColor=#0066CC;verticalAlign=bottom;verticalLabelPosition=top;labelPosition=center;align=center;html=1;outlineConnect=0;fillColor=#CCCCCC;strokeColor=#6881B3;gradientColor=none;gradientDirection=north;strokeWidth=2;shape=mxgraph.networks.pc;shadow=0;labelBackgroundColor=none;" vertex="1" parent="1">
          <mxGeometry x="50" y="410" width="100" height="70" as="geometry" />
        </mxCell>
        <mxCell id="GZCv9EuEwbtDtDDyxfHs-25" style="edgeStyle=orthogonalEdgeStyle;rounded=0;orthogonalLoop=1;jettySize=auto;html=1;entryX=0.5;entryY=0;entryDx=0;entryDy=0;entryPerimeter=0;endArrow=none;endFill=0;strokeColor=#000000;" edge="1" parent="1" source="GZCv9EuEwbtDtDDyxfHs-21" target="GZCv9EuEwbtDtDDyxfHs-23">
          <mxGeometry relative="1" as="geometry" />
        </mxCell>
        <mxCell id="GZCv9EuEwbtDtDDyxfHs-48" value="Cat 6" style="edgeLabel;html=1;align=center;verticalAlign=middle;resizable=0;points=[];" vertex="1" connectable="0" parent="GZCv9EuEwbtDtDDyxfHs-25">
          <mxGeometry x="0.3895" y="-1" relative="1" as="geometry">
            <mxPoint x="-4" y="9" as="offset" />
          </mxGeometry>
        </mxCell>
        <mxCell id="GZCv9EuEwbtDtDDyxfHs-26" style="edgeStyle=orthogonalEdgeStyle;rounded=0;orthogonalLoop=1;jettySize=auto;html=1;entryX=0.5;entryY=0;entryDx=0;entryDy=0;entryPerimeter=0;endArrow=none;endFill=0;strokeColor=#000000;" edge="1" parent="1" source="GZCv9EuEwbtDtDDyxfHs-21" target="GZCv9EuEwbtDtDDyxfHs-24">
          <mxGeometry relative="1" as="geometry" />
        </mxCell>
        <mxCell id="GZCv9EuEwbtDtDDyxfHs-47" value="Cat 6A" style="edgeLabel;html=1;align=center;verticalAlign=middle;resizable=0;points=[];" vertex="1" connectable="0" parent="GZCv9EuEwbtDtDDyxfHs-26">
          <mxGeometry x="0.4526" relative="1" as="geometry">
            <mxPoint y="6" as="offset" />
          </mxGeometry>
        </mxCell>
        <mxCell id="GZCv9EuEwbtDtDDyxfHs-21" value="IO-DATA ETG-ESH5" style="fontColor=#0066CC;verticalAlign=bottom;verticalLabelPosition=top;labelPosition=center;align=center;html=1;outlineConnect=0;fillColor=#CCCCCC;strokeColor=#6881B3;gradientColor=none;gradientDirection=north;strokeWidth=2;shape=mxgraph.networks.hub;shadow=0;labelBackgroundColor=none;" vertex="1" parent="1">
          <mxGeometry x="200" y="410" width="100" height="30" as="geometry" />
        </mxCell>
        <mxCell id="GZCv9EuEwbtDtDDyxfHs-23" value="nasne 500GB" style="fontColor=#0066CC;verticalAlign=top;verticalLabelPosition=bottom;labelPosition=center;align=center;html=1;outlineConnect=0;fillColor=#CCCCCC;strokeColor=#6881B3;gradientColor=none;gradientDirection=north;strokeWidth=2;shape=mxgraph.networks.storage;shadow=0;labelBackgroundColor=none;" vertex="1" parent="1">
          <mxGeometry x="200" y="500" width="30" height="40" as="geometry" />
        </mxCell>
        <mxCell id="GZCv9EuEwbtDtDDyxfHs-24" value="nasne 1TB" style="fontColor=#0066CC;verticalAlign=top;verticalLabelPosition=bottom;labelPosition=center;align=center;html=1;outlineConnect=0;fillColor=#CCCCCC;strokeColor=#6881B3;gradientColor=none;gradientDirection=north;strokeWidth=2;shape=mxgraph.networks.storage;shadow=0;labelBackgroundColor=none;" vertex="1" parent="1">
          <mxGeometry x="270" y="500" width="30" height="40" as="geometry" />
        </mxCell>
        <mxCell id="GZCv9EuEwbtDtDDyxfHs-28" value="&lt;div&gt;PS4&lt;/div&gt;" style="fontColor=#0066CC;verticalAlign=bottom;verticalLabelPosition=top;labelPosition=center;align=center;html=1;outlineConnect=0;fillColor=#CCCCCC;strokeColor=#6881B3;gradientColor=none;gradientDirection=north;strokeWidth=2;shape=mxgraph.networks.gamepad;shadow=0;labelBackgroundColor=none;" vertex="1" parent="1">
          <mxGeometry x="390" y="140" width="60" height="40" as="geometry" />
        </mxCell>
        <mxCell id="GZCv9EuEwbtDtDDyxfHs-29" value="&lt;div&gt;PSP&lt;/div&gt;" style="fontColor=#0066CC;verticalAlign=bottom;verticalLabelPosition=top;labelPosition=center;align=center;html=1;outlineConnect=0;fillColor=#CCCCCC;strokeColor=#6881B3;gradientColor=none;gradientDirection=north;strokeWidth=2;shape=mxgraph.networks.gamepad;shadow=0;labelBackgroundColor=none;" vertex="1" parent="1">
          <mxGeometry x="510" y="220" width="60" height="40" as="geometry" />
        </mxCell>
        <mxCell id="GZCv9EuEwbtDtDDyxfHs-30" value="PS3" style="fontColor=#0066CC;verticalAlign=bottom;verticalLabelPosition=top;labelPosition=center;align=center;html=1;outlineConnect=0;fillColor=#CCCCCC;strokeColor=#6881B3;gradientColor=none;gradientDirection=north;strokeWidth=2;shape=mxgraph.networks.gamepad;shadow=0;labelBackgroundColor=none;" vertex="1" parent="1">
          <mxGeometry x="510" y="50" width="60" height="40" as="geometry" />
        </mxCell>
        <mxCell id="GZCv9EuEwbtDtDDyxfHs-31" value="PS VITA" style="fontColor=#0066CC;verticalAlign=bottom;verticalLabelPosition=top;labelPosition=center;align=center;html=1;outlineConnect=0;fillColor=#CCCCCC;strokeColor=#6881B3;gradientColor=none;gradientDirection=north;strokeWidth=2;shape=mxgraph.networks.gamepad;shadow=0;labelBackgroundColor=none;" vertex="1" parent="1">
          <mxGeometry x="510" y="140" width="60" height="40" as="geometry" />
        </mxCell>
        <mxCell id="GZCv9EuEwbtDtDDyxfHs-33" value="Switch" style="fontColor=#0066CC;verticalAlign=bottom;verticalLabelPosition=top;labelPosition=center;align=center;html=1;outlineConnect=0;fillColor=#CCCCCC;strokeColor=#6881B3;gradientColor=none;gradientDirection=north;strokeWidth=2;shape=mxgraph.networks.gamepad;shadow=0;labelBackgroundColor=none;" vertex="1" parent="1">
          <mxGeometry x="390" y="50" width="60" height="40" as="geometry" />
        </mxCell>
        <mxCell id="GZCv9EuEwbtDtDDyxfHs-34" value="3DS" style="fontColor=#0066CC;verticalAlign=bottom;verticalLabelPosition=top;labelPosition=center;align=center;html=1;outlineConnect=0;fillColor=#CCCCCC;strokeColor=#6881B3;gradientColor=none;gradientDirection=north;strokeWidth=2;shape=mxgraph.networks.gamepad;shadow=0;labelBackgroundColor=none;" vertex="1" parent="1">
          <mxGeometry x="390" y="220" width="60" height="40" as="geometry" />
        </mxCell>
        <mxCell id="GZCv9EuEwbtDtDDyxfHs-41" style="edgeStyle=orthogonalEdgeStyle;rounded=0;orthogonalLoop=1;jettySize=auto;html=1;endArrow=none;endFill=0;strokeColor=#000000;" edge="1" parent="1" source="GZCv9EuEwbtDtDDyxfHs-35" target="GZCv9EuEwbtDtDDyxfHs-38">
          <mxGeometry relative="1" as="geometry">
            <Array as="points">
              <mxPoint x="430" y="490" />
              <mxPoint x="430" y="490" />
            </Array>
          </mxGeometry>
        </mxCell>
        <mxCell id="GZCv9EuEwbtDtDDyxfHs-44" value="Cat 6" style="edgeLabel;html=1;align=center;verticalAlign=middle;resizable=0;points=[];" vertex="1" connectable="0" parent="GZCv9EuEwbtDtDDyxfHs-41">
          <mxGeometry x="0.1478" y="3" relative="1" as="geometry">
            <mxPoint x="-13" y="-11" as="offset" />
          </mxGeometry>
        </mxCell>
        <mxCell id="GZCv9EuEwbtDtDDyxfHs-42" style="edgeStyle=orthogonalEdgeStyle;rounded=0;orthogonalLoop=1;jettySize=auto;html=1;endArrow=none;endFill=0;strokeColor=#000000;" edge="1" parent="1" source="GZCv9EuEwbtDtDDyxfHs-35" target="GZCv9EuEwbtDtDDyxfHs-38">
          <mxGeometry relative="1" as="geometry">
            <Array as="points">
              <mxPoint x="450" y="490" />
              <mxPoint x="450" y="490" />
            </Array>
          </mxGeometry>
        </mxCell>
        <mxCell id="GZCv9EuEwbtDtDDyxfHs-43" value="Cat 6" style="edgeLabel;html=1;align=center;verticalAlign=middle;resizable=0;points=[];" vertex="1" connectable="0" parent="GZCv9EuEwbtDtDDyxfHs-42">
          <mxGeometry x="0.1826" y="5" relative="1" as="geometry">
            <mxPoint x="5" y="7" as="offset" />
          </mxGeometry>
        </mxCell>
        <mxCell id="GZCv9EuEwbtDtDDyxfHs-35" value="BUFFAROW WEX-G300" style="fontColor=#0066CC;verticalAlign=bottom;verticalLabelPosition=top;labelPosition=center;align=center;html=1;outlineConnect=0;fillColor=#CCCCCC;strokeColor=#6881B3;gradientColor=none;gradientDirection=north;strokeWidth=2;shape=mxgraph.networks.wireless_hub;shadow=1;labelBackgroundColor=none;" vertex="1" parent="1">
          <mxGeometry x="390" y="350" width="100" height="85" as="geometry" />
        </mxCell>
        <mxCell id="GZCv9EuEwbtDtDDyxfHs-38" value="LCD-A50BHR8" style="fontColor=#0066CC;verticalAlign=bottom;verticalLabelPosition=top;labelPosition=center;align=center;html=1;outlineConnect=0;fillColor=#CCCCCC;strokeColor=#6881B3;gradientColor=none;gradientDirection=north;strokeWidth=2;shape=mxgraph.networks.monitor;shadow=1;labelBackgroundColor=none;" vertex="1" parent="1">
          <mxGeometry x="400" y="550" width="80" height="65" as="geometry" />
        </mxCell>
        <mxCell id="GZCv9EuEwbtDtDDyxfHs-49" value="" style="fontColor=#0066CC;verticalAlign=top;verticalLabelPosition=bottom;labelPosition=center;align=center;html=1;outlineConnect=0;fillColor=#CCCCCC;strokeColor=#6881B3;gradientColor=none;gradientDirection=north;strokeWidth=2;shape=mxgraph.networks.mobile;shadow=1;labelBackgroundColor=none;" vertex="1" parent="1">
          <mxGeometry x="630" y="275" width="30" height="60" as="geometry" />
        </mxCell>
        <mxCell id="GZCv9EuEwbtDtDDyxfHs-50" value="Xperia Z2" style="fontColor=#0066CC;verticalAlign=bottom;verticalLabelPosition=top;labelPosition=center;align=center;html=1;outlineConnect=0;fillColor=#CCCCCC;strokeColor=#6881B3;gradientColor=none;gradientDirection=north;strokeWidth=2;shape=mxgraph.networks.mobile;shadow=1;labelBackgroundColor=none;" vertex="1" parent="1">
          <mxGeometry x="610" y="200" width="70" height="40" as="geometry" />
        </mxCell>
        <mxCell id="GZCv9EuEwbtDtDDyxfHs-51" value="&lt;div&gt;PSP&lt;/div&gt;" style="fontColor=#0066CC;verticalAlign=bottom;verticalLabelPosition=top;labelPosition=center;align=center;html=1;outlineConnect=0;fillColor=#CCCCCC;strokeColor=#6881B3;gradientColor=none;gradientDirection=north;strokeWidth=2;shape=mxgraph.networks.gamepad;shadow=0;labelBackgroundColor=none;" vertex="1" parent="1">
          <mxGeometry x="510" y="220" width="60" height="40" as="geometry" />
        </mxCell>
        <mxCell id="GZCv9EuEwbtDtDDyxfHs-52" value="Wii U" style="fontColor=#0066CC;verticalAlign=bottom;verticalLabelPosition=top;labelPosition=center;align=center;html=1;outlineConnect=0;fillColor=#CCCCCC;strokeColor=#6881B3;gradientColor=none;gradientDirection=north;strokeWidth=2;shape=mxgraph.networks.gamepad;shadow=0;labelBackgroundColor=none;" vertex="1" parent="1">
          <mxGeometry x="615" y="50" width="60" height="40" as="geometry" />
        </mxCell>
        <mxCell id="GZCv9EuEwbtDtDDyxfHs-53" value="SwitchBot Hub Mini" style="outlineConnect=0;fontColor=#232F3E;gradientColor=none;strokeColor=#232F3E;fillColor=#ffffff;dashed=0;verticalLabelPosition=top;verticalAlign=bottom;align=center;html=1;fontSize=12;fontStyle=0;aspect=fixed;shape=mxgraph.aws4.resourceIcon;resIcon=mxgraph.aws4.alexa_voice_service;shadow=1;labelBackgroundColor=none;labelPosition=center;" vertex="1" parent="1">
          <mxGeometry x="730" y="50" width="60" height="60" as="geometry" />
        </mxCell>
        <mxCell id="GZCv9EuEwbtDtDDyxfHs-54" value="&lt;div&gt;192.168.1.2&lt;/div&gt;" style="text;html=1;resizable=0;autosize=1;align=center;verticalAlign=middle;points=[];fillColor=none;strokeColor=none;rounded=0;shadow=0;labelBackgroundColor=none;" vertex="1" parent="1">
          <mxGeometry x="400" y="435" width="80" height="20" as="geometry" />
        </mxCell>
      </root>
    </mxGraphModel>
  </diagram>
</mxfile>
